<?xml version="1.0" encoding="UTF-8" standalone="no"?>
<svg xmlns="http://www.w3.org/2000/svg" width="900" height="900" viewBox="0 0 900 900">
<g transform="translate(424,543) rotate(0)">
<text x="-161,44434" y="-64,3862" dominant-baseline="text-before-edge" fill="#63643D" font-family="Times New Roman" font-size="116,278534px">qwerty</text>
</g>
<g transform="translate(454,208) rotate(90)">
<text x="-108,68409" y="-43,345184" dominant-baseline="text-before-edge" fill="#3E4B1A" font-family="Times New Roman" font-size="78,278534px">qwerty</text>
</g>
<g transform="translate(448,469) rotate(0)">
<text x="-107,29566" y="-42,791473" dominant-baseline="text-before-edge" fill="#40BF8E" font-family="Times New Roman" font-size="77,278534px">qwerty</text>
</g>
<g transform="translate(427,623) rotate(0)">
<text x="-97,57667" y="-38,915497" dominant-baseline="text-before-edge" fill="#C9E911" font-family="Times New Roman" font-size="70,278534px">qwerty</text>
</g>
<g transform="translate(346,215) rotate(0)">
<text x="-79,52711" y="-31,717255" dominant-baseline="text-before-edge" fill="#BDB3E7" font-family="Times New Roman" font-size="57,278534px">qwerty</text>
</g>
<g transform="translate(455,419) rotate(0)">
<text x="-72,58496" y="-28,9487" dominant-baseline="text-before-edge" fill="#EB6BEE" font-family="Times New Roman" font-size="52,278534px">qwerty</text>
</g>
<g transform="translate(497,263) rotate(90)">
<text x="-54,535404" y="-21,750458" dominant-baseline="text-before-edge" fill="#D65A17" font-family="Times New Roman" font-size="39,278534px">qwerty</text>
</g>
<g transform="translate(355,267) rotate(0)">
<text x="-51,75855" y="-20,643036" dominant-baseline="text-before-edge" fill="#A0F5E9" font-family="Times New Roman" font-size="37,278534px">qwerty</text>
</g>
<g transform="translate(438,359) rotate(90)">
<text x="-50,37012" y="-20,089325" dominant-baseline="text-before-edge" fill="#BDF499" font-family="Times New Roman" font-size="36,278534px">qwerty</text>
</g>
<g transform="translate(294,508) rotate(0)">
<text x="-50,37012" y="-20,089325" dominant-baseline="text-before-edge" fill="#D5CD75" font-family="Times New Roman" font-size="36,278534px">qwerty</text>
</g>
<g transform="translate(420,668) rotate(0)">
<text x="-50,37012" y="-20,089325" dominant-baseline="text-before-edge" fill="#8C6661" font-family="Times New Roman" font-size="36,278534px">qwerty</text>
</g>
<g transform="translate(215,548) rotate(0)">
<text x="-48,981693" y="-19,535614" dominant-baseline="text-before-edge" fill="#54142F" font-family="Times New Roman" font-size="35,278534px">qwerty</text>
</g>
<g transform="translate(468,362) rotate(90)">
<text x="-48,981693" y="-19,535614" dominant-baseline="text-before-edge" fill="#769A14" font-family="Times New Roman" font-size="35,278534px">qwerty</text>
</g>
<g transform="translate(483,151) rotate(90)">
<text x="-47,593266" y="-18,981903" dominant-baseline="text-before-edge" fill="#87E282" font-family="Times New Roman" font-size="34,278534px">qwerty</text>
</g>
<g transform="translate(366,181) rotate(0)">
<text x="-44,81641" y="-17,874481" dominant-baseline="text-before-edge" fill="#744DF4" font-family="Times New Roman" font-size="32,278534px">qwerty</text>
</g>
<g transform="translate(420,512) rotate(0)">
<text x="-40,65113" y="-16,213348" dominant-baseline="text-before-edge" fill="#9785A5" font-family="Times New Roman" font-size="29,278534px">qwerty</text>
</g>
<g transform="translate(587,593) rotate(90)">
<text x="-40,65113" y="-16,213348" dominant-baseline="text-before-edge" fill="#5D8B3D" font-family="Times New Roman" font-size="29,278534px">qwerty</text>
</g>
<g transform="translate(355,598) rotate(0)">
<text x="-35,09742" y="-13,998505" dominant-baseline="text-before-edge" fill="#D3F4E6" font-family="Times New Roman" font-size="25,278534px">qwerty</text>
</g>
<g transform="translate(426,598) rotate(0)">
<text x="-35,09742" y="-13,998505" dominant-baseline="text-before-edge" fill="#084717" font-family="Times New Roman" font-size="25,278534px">qwerty</text>
</g>
<g transform="translate(452,723) rotate(90)">
<text x="-35,09742" y="-13,998505" dominant-baseline="text-before-edge" fill="#72FC91" font-family="Times New Roman" font-size="25,278534px">qwerty</text>
</g>
<g transform="translate(486,347) rotate(90)">
<text x="-33,708992" y="-13,444794" dominant-baseline="text-before-edge" fill="#AE0B45" font-family="Times New Roman" font-size="24,278534px">qwerty</text>
</g>
<g transform="translate(450,86) rotate(0)">
<text x="-32,320564" y="-12,891083" dominant-baseline="text-before-edge" fill="#1486AB" font-family="Times New Roman" font-size="23,278534px">qwerty</text>
</g>
<g transform="translate(551,212) rotate(0)">
<text x="-32,320564" y="-12,891083" dominant-baseline="text-before-edge" fill="#2F9F7D" font-family="Times New Roman" font-size="23,278534px">qwerty</text>
</g>
<g transform="translate(326,248) rotate(0)">
<text x="-32,320564" y="-12,891083" dominant-baseline="text-before-edge" fill="#3517FF" font-family="Times New Roman" font-size="23,278534px">qwerty</text>
</g>
<g transform="translate(308,485) rotate(0)">
<text x="-32,320564" y="-12,891083" dominant-baseline="text-before-edge" fill="#24BB2E" font-family="Times New Roman" font-size="23,278534px">qwerty</text>
</g>
<g transform="translate(563,494) rotate(90)">
<text x="-32,320564" y="-12,891083" dominant-baseline="text-before-edge" fill="#746232" font-family="Times New Roman" font-size="23,278534px">qwerty</text>
</g>
<g transform="translate(209,526) rotate(0)">
<text x="-30,932135" y="-12,337372" dominant-baseline="text-before-edge" fill="#D9F35F" font-family="Times New Roman" font-size="22,278534px">qwerty</text>
</g>
<g transform="translate(214,571) rotate(0)">
<text x="-30,932135" y="-12,337372" dominant-baseline="text-before-edge" fill="#74A7CD" font-family="Times New Roman" font-size="22,278534px">qwerty</text>
</g>
<g transform="translate(398,700) rotate(0)">
<text x="-30,932135" y="-12,337372" dominant-baseline="text-before-edge" fill="#BD2B71" font-family="Times New Roman" font-size="22,278534px">qwerty</text>
</g>
<g transform="translate(351,815) rotate(90)">
<text x="-30,932135" y="-12,337372" dominant-baseline="text-before-edge" fill="#5460E6" font-family="Times New Roman" font-size="22,278534px">qwerty</text>
</g>
<g transform="translate(514,255) rotate(90)">
<text x="-29,543707" y="-11,783661" dominant-baseline="text-before-edge" fill="#2781EC" font-family="Times New Roman" font-size="21,278534px">qwerty</text>
</g>
<g transform="translate(381,299) rotate(0)">
<text x="-29,543707" y="-11,783661" dominant-baseline="text-before-edge" fill="#11B5C7" font-family="Times New Roman" font-size="21,278534px">qwerty</text>
</g>
<g transform="translate(293,194) rotate(0)">
<text x="-26,766851" y="-10,676239" dominant-baseline="text-before-edge" fill="#05CE35" font-family="Times New Roman" font-size="19,278534px">qwerty</text>
</g>
<g transform="translate(358,447) rotate(0)">
<text x="-26,766851" y="-10,676239" dominant-baseline="text-before-edge" fill="#24D77B" font-family="Times New Roman" font-size="19,278534px">qwerty</text>
</g>
<g transform="translate(400,161) rotate(0)">
<text x="-25,378424" y="-10,122528" dominant-baseline="text-before-edge" fill="#86C5D4" font-family="Times New Roman" font-size="18,278534px">qwerty</text>
</g>
<g transform="translate(605,600) rotate(90)">
<text x="-25,378424" y="-10,122528" dominant-baseline="text-before-edge" fill="#FCC1A3" font-family="Times New Roman" font-size="18,278534px">qwerty</text>
</g>
<g transform="translate(545,626) rotate(0)">
<text x="-25,378424" y="-10,122528" dominant-baseline="text-before-edge" fill="#EF8268" font-family="Times New Roman" font-size="18,278534px">qwerty</text>
</g>
<g transform="translate(371,738) rotate(90)">
<text x="-25,378424" y="-10,122528" dominant-baseline="text-before-edge" fill="#B3935A" font-family="Times New Roman" font-size="18,278534px">qwerty</text>
</g>
<g transform="translate(502,395) rotate(0)">
<text x="-23,989996" y="-9,568817" dominant-baseline="text-before-edge" fill="#A53A3B" font-family="Times New Roman" font-size="17,278534px">qwerty</text>
</g>
<g transform="translate(486,593) rotate(0)">
<text x="-23,989996" y="-9,568817" dominant-baseline="text-before-edge" fill="#AE79A4" font-family="Times New Roman" font-size="17,278534px">qwerty</text>
</g>
<g transform="translate(534,432) rotate(90)">
<text x="-23,989996" y="-9,568817" dominant-baseline="text-before-edge" fill="#25D6F9" font-family="Times New Roman" font-size="17,278534px">qwerty</text>
</g>
<g transform="translate(217,443) rotate(0)">
<text x="-23,989996" y="-9,568817" dominant-baseline="text-before-edge" fill="#2193A8" font-family="Times New Roman" font-size="17,278534px">qwerty</text>
</g>
<g transform="translate(431,448) rotate(0)">
<text x="-23,989996" y="-9,568817" dominant-baseline="text-before-edge" fill="#0B8562" font-family="Times New Roman" font-size="17,278534px">qwerty</text>
</g>
<g transform="translate(483,506) rotate(0)">
<text x="-23,989996" y="-9,568817" dominant-baseline="text-before-edge" fill="#B01B8C" font-family="Times New Roman" font-size="17,278534px">qwerty</text>
</g>
<g transform="translate(756,486) rotate(90)">
<text x="-22,601568" y="-9,015106" dominant-baseline="text-before-edge" fill="#F9768B" font-family="Times New Roman" font-size="16,278534px">qwerty</text>
</g>
<g transform="translate(477,447) rotate(0)">
<text x="-22,601568" y="-9,015106" dominant-baseline="text-before-edge" fill="#B9EBC1" font-family="Times New Roman" font-size="16,278534px">qwerty</text>
</g>
<g transform="translate(321,568) rotate(90)">
<text x="-22,601568" y="-9,015106" dominant-baseline="text-before-edge" fill="#0600A8" font-family="Times New Roman" font-size="16,278534px">qwerty</text>
</g>
<g transform="translate(308,621) rotate(0)">
<text x="-22,601568" y="-9,015106" dominant-baseline="text-before-edge" fill="#142B49" font-family="Times New Roman" font-size="16,278534px">qwerty</text>
</g>
<g transform="translate(577,500) rotate(90)">
<text x="-21,21314" y="-8,461395" dominant-baseline="text-before-edge" fill="#CC6CC9" font-family="Times New Roman" font-size="15,278534px">qwerty</text>
</g>
<g transform="translate(492,564) rotate(90)">
<text x="-21,21314" y="-8,461395" dominant-baseline="text-before-edge" fill="#04B42C" font-family="Times New Roman" font-size="15,278534px">qwerty</text>
</g>
<g transform="translate(277,592) rotate(0)">
<text x="-21,21314" y="-8,461395" dominant-baseline="text-before-edge" fill="#79E8D6" font-family="Times New Roman" font-size="15,278534px">qwerty</text>
</g>
<g transform="translate(410,390) rotate(90)">
<text x="-19,824713" y="-7,9076843" dominant-baseline="text-before-edge" fill="#B5883E" font-family="Times New Roman" font-size="14,278534px">qwerty</text>
</g>
<g transform="translate(363,432) rotate(0)">
<text x="-19,824713" y="-7,9076843" dominant-baseline="text-before-edge" fill="#55466E" font-family="Times New Roman" font-size="14,278534px">qwerty</text>
</g>
<g transform="translate(323,468) rotate(0)">
<text x="-19,824713" y="-7,9076843" dominant-baseline="text-before-edge" fill="#A65B7D" font-family="Times New Roman" font-size="14,278534px">qwerty</text>
</g>
<g transform="translate(655,89) rotate(90)">
<text x="-19,824713" y="-7,9076843" dominant-baseline="text-before-edge" fill="#6B85AB" font-family="Times New Roman" font-size="14,278534px">qwerty</text>
</g>
<g transform="translate(418,254) rotate(90)">
<text x="-19,824713" y="-7,9076843" dominant-baseline="text-before-edge" fill="#8A76F7" font-family="Times New Roman" font-size="14,278534px">qwerty</text>
</g>
<g transform="translate(495,126) rotate(90)">
<text x="-19,824713" y="-7,9076843" dominant-baseline="text-before-edge" fill="#7C2F22" font-family="Times New Roman" font-size="14,278534px">qwerty</text>
</g>
<g transform="translate(386,728) rotate(90)">
<text x="-19,824713" y="-7,9076843" dominant-baseline="text-before-edge" fill="#9D117B" font-family="Times New Roman" font-size="14,278534px">qwerty</text>
</g>
<g transform="translate(408,146) rotate(0)">
<text x="-19,824713" y="-7,9076843" dominant-baseline="text-before-edge" fill="#BDADFE" font-family="Times New Roman" font-size="14,278534px">qwerty</text>
</g>
<g transform="translate(607,200) rotate(0)">
<text x="-19,824713" y="-7,9076843" dominant-baseline="text-before-edge" fill="#E3BA9B" font-family="Times New Roman" font-size="14,278534px">qwerty</text>
</g>
<g transform="translate(569,597) rotate(90)">
<text x="-19,824713" y="-7,9076843" dominant-baseline="text-before-edge" fill="#19AA2C" font-family="Times New Roman" font-size="14,278534px">qwerty</text>
</g>
<g transform="translate(341,287) rotate(0)">
<text x="-19,824713" y="-7,9076843" dominant-baseline="text-before-edge" fill="#22BA91" font-family="Times New Roman" font-size="14,278534px">qwerty</text>
</g>
<g transform="translate(400,573) rotate(90)">
<text x="-19,824713" y="-7,9076843" dominant-baseline="text-before-edge" fill="#E42B6D" font-family="Times New Roman" font-size="14,278534px">qwerty</text>
</g>
<g transform="translate(258,213) rotate(90)">
<text x="-19,824713" y="-7,9076843" dominant-baseline="text-before-edge" fill="#97069B" font-family="Times New Roman" font-size="14,278534px">qwerty</text>
</g>
<g transform="translate(535,574) rotate(90)">
<text x="-19,824713" y="-7,9076843" dominant-baseline="text-before-edge" fill="#8DF3B3" font-family="Times New Roman" font-size="14,278534px">qwerty</text>
</g>
<g transform="translate(525,245) rotate(90)">
<text x="-19,824713" y="-7,9076843" dominant-baseline="text-before-edge" fill="#A08BAC" font-family="Times New Roman" font-size="14,278534px">qwerty</text>
</g>
<g transform="translate(338,359) rotate(0)">
<text x="-19,824713" y="-7,9076843" dominant-baseline="text-before-edge" fill="#1A6540" font-family="Times New Roman" font-size="14,278534px">qwerty</text>
</g>
<g transform="translate(743,515) rotate(0)">
<text x="-19,824713" y="-7,9076843" dominant-baseline="text-before-edge" fill="#D95EAA" font-family="Times New Roman" font-size="14,278534px">qwerty</text>
</g>
<g transform="translate(359,521) rotate(0)">
<text x="-19,824713" y="-7,9076843" dominant-baseline="text-before-edge" fill="#F8F483" font-family="Times New Roman" font-size="14,278534px">qwerty</text>
</g>
<g transform="translate(382,655) rotate(0)">
<text x="-18,436285" y="-7,3539734" dominant-baseline="text-before-edge" fill="#AB8349" font-family="Times New Roman" font-size="13,278534px">qwerty</text>
</g>
<g transform="translate(362,780) rotate(90)">
<text x="-18,436285" y="-7,3539734" dominant-baseline="text-before-edge" fill="#BDD81C" font-family="Times New Roman" font-size="13,278534px">qwerty</text>
</g>
<g transform="translate(442,74) rotate(0)">
<text x="-18,436285" y="-7,3539734" dominant-baseline="text-before-edge" fill="#86A596" font-family="Times New Roman" font-size="13,278534px">qwerty</text>
</g>
<g transform="translate(330,810) rotate(90)">
<text x="-18,436285" y="-7,3539734" dominant-baseline="text-before-edge" fill="#032D91" font-family="Times New Roman" font-size="13,278534px">qwerty</text>
</g>
<g transform="translate(360,328) rotate(90)">
<text x="-18,436285" y="-7,3539734" dominant-baseline="text-before-edge" fill="#75F4CD" font-family="Times New Roman" font-size="13,278534px">qwerty</text>
</g>
<g transform="translate(376,242) rotate(0)">
<text x="-18,436285" y="-7,3539734" dominant-baseline="text-before-edge" fill="#EEB1E4" font-family="Times New Roman" font-size="13,278534px">qwerty</text>
</g>
<g transform="translate(321,374) rotate(0)">
<text x="-18,436285" y="-7,3539734" dominant-baseline="text-before-edge" fill="#DFC59A" font-family="Times New Roman" font-size="13,278534px">qwerty</text>
</g>
<g transform="translate(226,509) rotate(0)">
<text x="-18,436285" y="-7,3539734" dominant-baseline="text-before-edge" fill="#929EF8" font-family="Times New Roman" font-size="13,278534px">qwerty</text>
</g>
<g transform="translate(591,526) rotate(90)">
<text x="-18,436285" y="-7,3539734" dominant-baseline="text-before-edge" fill="#6EB8AF" font-family="Times New Roman" font-size="13,278534px">qwerty</text>
</g>
<g transform="translate(419,655) rotate(0)">
<text x="-18,436285" y="-7,3539734" dominant-baseline="text-before-edge" fill="#190A4E" font-family="Times New Roman" font-size="13,278534px">qwerty</text>
</g>
<g transform="translate(467,655) rotate(0)">
<text x="-18,436285" y="-7,3539734" dominant-baseline="text-before-edge" fill="#FC162A" font-family="Times New Roman" font-size="13,278534px">qwerty</text>
</g>
<g transform="translate(419,364) rotate(90)">
<text x="-17,047857" y="-6,8002625" dominant-baseline="text-before-edge" fill="#CF2D4C" font-family="Times New Roman" font-size="12,278534px">qwerty</text>
</g>
<g transform="translate(462,705) rotate(90)">
<text x="-17,047857" y="-6,8002625" dominant-baseline="text-before-edge" fill="#B2D08B" font-family="Times New Roman" font-size="12,278534px">qwerty</text>
</g>
<g transform="translate(338,170) rotate(0)">
<text x="-17,047857" y="-6,8002625" dominant-baseline="text-before-edge" fill="#4E8802" font-family="Times New Roman" font-size="12,278534px">qwerty</text>
</g>
<g transform="translate(416,188) rotate(90)">
<text x="-17,047857" y="-6,8002625" dominant-baseline="text-before-edge" fill="#F244C4" font-family="Times New Roman" font-size="12,278534px">qwerty</text>
</g>
<g transform="translate(258,496) rotate(0)">
<text x="-17,047857" y="-6,8002625" dominant-baseline="text-before-edge" fill="#9DC215" font-family="Times New Roman" font-size="12,278534px">qwerty</text>
</g>
<g transform="translate(547,441) rotate(90)">
<text x="-17,047857" y="-6,8002625" dominant-baseline="text-before-edge" fill="#3A30FE" font-family="Times New Roman" font-size="12,278534px">qwerty</text>
</g>
<g transform="translate(530,518) rotate(0)">
<text x="-17,047857" y="-6,8002625" dominant-baseline="text-before-edge" fill="#18DAB8" font-family="Times New Roman" font-size="12,278534px">qwerty</text>
</g>
<g transform="translate(354,199) rotate(0)">
<text x="-17,047857" y="-6,8002625" dominant-baseline="text-before-edge" fill="#8387E7" font-family="Times New Roman" font-size="12,278534px">qwerty</text>
</g>
<g transform="translate(476,245) rotate(90)">
<text x="-17,047857" y="-6,8002625" dominant-baseline="text-before-edge" fill="#12CE7C" font-family="Times New Roman" font-size="12,278534px">qwerty</text>
</g>
<g transform="translate(472,522) rotate(0)">
<text x="-17,047857" y="-6,8002625" dominant-baseline="text-before-edge" fill="#E64D1E" font-family="Times New Roman" font-size="12,278534px">qwerty</text>
</g>
<g transform="translate(291,553) rotate(90)">
<text x="-17,047857" y="-6,8002625" dominant-baseline="text-before-edge" fill="#525294" font-family="Times New Roman" font-size="12,278534px">qwerty</text>
</g>
<g transform="translate(539,615) rotate(0)">
<text x="-17,047857" y="-6,8002625" dominant-baseline="text-before-edge" fill="#2E6D1C" font-family="Times New Roman" font-size="12,278534px">qwerty</text>
</g>
<g transform="translate(528,643) rotate(0)">
<text x="-17,047857" y="-6,8002625" dominant-baseline="text-before-edge" fill="#F6CEA5" font-family="Times New Roman" font-size="12,278534px">qwerty</text>
</g>
<g transform="translate(663,120) rotate(90)">
<text x="-15,65943" y="-6,2465515" dominant-baseline="text-before-edge" fill="#E977D8" font-family="Times New Roman" font-size="11,278534px">qwerty</text>
</g>
<g transform="translate(498,170) rotate(90)">
<text x="-15,65943" y="-6,2465515" dominant-baseline="text-before-edge" fill="#A3DE7E" font-family="Times New Roman" font-size="11,278534px">qwerty</text>
</g>
<g transform="translate(304,180) rotate(0)">
<text x="-15,65943" y="-6,2465515" dominant-baseline="text-before-edge" fill="#2F0351" font-family="Times New Roman" font-size="11,278534px">qwerty</text>
</g>
<g transform="translate(547,226) rotate(0)">
<text x="-15,65943" y="-6,2465515" dominant-baseline="text-before-edge" fill="#F51BBE" font-family="Times New Roman" font-size="11,278534px">qwerty</text>
</g>
<g transform="translate(404,686) rotate(0)">
<text x="-15,65943" y="-6,2465515" dominant-baseline="text-before-edge" fill="#6E48C5" font-family="Times New Roman" font-size="11,278534px">qwerty</text>
</g>
<g transform="translate(449,346) rotate(90)">
<text x="-15,65943" y="-6,2465515" dominant-baseline="text-before-edge" fill="#385B66" font-family="Times New Roman" font-size="11,278534px">qwerty</text>
</g>
</svg>
